<svg width="91" height="109" viewBox="0 0 91 109" fill="none" xmlns="http://www.w3.org/2000/svg">
<path d="M69.095 48.0367C48.6155 36.007 8.29735 41.7915 4.34032 51.3586C-0.845219 63.8931 10.3404 100.142 15.3702 103.481C21.5349 107.569 48.3173 106.9 56.3203 103.167C59.8056 101.541 63.8383 89.2147 65.8502 76.6979C66.0371 75.5242 87.9499 79.6079 87.6339 61.5855C87.3757 46.8807 72.923 50.2867 69.095 48.0367ZM69.7449 70.466L70.0609 55.5486C70.0609 55.5486 80.8014 54.8355 81.5626 61.4792C82.7377 71.7549 69.7493 70.466 69.7493 70.466H69.7449Z" fill="#3C271C"/>
<path d="M69.095 48.0367C48.6155 36.007 8.29735 41.7915 4.34032 51.3586C-0.845219 63.8931 10.3404 100.142 15.3702 103.481C21.5349 107.569 48.3173 106.9 56.3203 103.167C59.8056 101.541 63.8383 89.2148 65.8502 76.6979C66.0371 75.5242 87.9499 79.6079 87.6339 61.5855C87.3757 46.8807 72.923 50.2867 69.095 48.0367ZM69.7449 70.466L70.0609 55.5486C70.0609 55.5486 80.8014 54.8355 81.5626 61.4792C82.7377 71.7549 69.7493 70.466 69.7493 70.466H69.7449Z" stroke="#3C271C" stroke-width="5" stroke-miterlimit="10"/>
<path d="M35.1517 60.5617C49.351 60.5617 60.8618 56.9806 60.8618 52.563C60.8618 48.1454 49.351 44.5643 35.1517 44.5643C20.9524 44.5643 9.44153 48.1454 9.44153 52.563C9.44153 56.9806 20.9524 60.5617 35.1517 60.5617Z" fill="black"/>
<path d="M17.9316 55.0086C14.9535 51.2001 13.6702 45.2764 17.6838 37.6235C18.2192 36.5996 15.4977 31.7806 17.1395 25.3269C17.5422 23.746 26.3659 32.6519 26.8526 32.5351C39.6014 29.4677 43.2433 33.3345 44.9691 31.8794C48.58 28.8345 55.0142 23.8404 54.9699 26.9617C55.377 34.1384 53.1866 37.1565 53.3105 37.3945C55.3815 41.3287 56.3329 48.9995 52.7175 54.6403C48.0313 61.9518 24.1533 62.9668 17.9316 55.0041V55.0086Z" fill="#CD985C" stroke="#3C271C" stroke-width="3" stroke-miterlimit="10"/>
<path d="M17.2574 63.5299C19.7411 65.9615 27.4327 62.9718 27.3214 60.1903C27.1967 57.1297 18.5616 55.3713 17.0749 56.7134C15.0897 58.5027 15.2856 61.5943 17.2619 63.5254L17.2574 63.5299Z" fill="#CD985C"/>
<path d="M17.2663 63.5166C18.25 64.429 19.71 64.4467 20.9652 64.2563C23.0082 63.902 26.7872 62.6662 27.2502 60.3985C27.4594 57.3822 19.4741 55.7213 17.3286 56.74C15.2188 58.3743 15.3835 61.7449 17.2663 63.5166ZM17.2441 63.5388C15.2678 61.7317 14.8182 58.2016 17.155 56.4432C19.5943 55.3182 25.8614 57.0146 27.1611 59.4329C28.4119 62.1967 23.1418 64.3803 20.9963 64.4645C19.7055 64.5708 18.2322 64.4689 17.2485 63.5388H17.2441Z" fill="#3C271C"/>
<path d="M53.89 63.4368C51.4063 65.8685 43.7147 62.8788 43.826 60.0972C43.9507 57.0367 52.5858 55.2783 54.0725 56.6203C56.0577 58.4097 55.8618 61.5013 53.8855 63.4324L53.89 63.4368Z" fill="#CD985C"/>
<path d="M53.8989 63.4501C52.9107 64.3803 51.4419 64.4777 50.1511 64.3758C48.0056 64.2917 42.7311 62.1081 43.9863 59.3443C45.2815 56.9304 51.5487 55.234 53.9924 56.3546C56.3247 58.113 55.8796 61.6475 53.9033 63.4501H53.8989ZM53.8766 63.428C55.7594 61.6563 55.9286 58.2857 53.8143 56.6514C51.6733 55.6371 43.688 57.2892 43.8928 60.3099C44.3513 62.5776 48.1392 63.8178 50.1778 64.1721C51.433 64.3626 52.8929 64.3404 53.8766 63.4324V63.428Z" fill="#3C271C"/>
<path d="M36.7718 27.0633C31.6373 17.879 31.3963 18.834 32.8294 15.3294C35.9279 7.75346 32.7312 5.28147 32.0213 4.55495C28.3469 0.794417 34.5305 6.98582 28.3469 15.1374C24.7349 19.8941 38.0755 29.3891 36.7762 27.0633H36.7718Z" fill="#3C271C" stroke="#3C271C" stroke-width="0.25" stroke-miterlimit="10"/>
<path d="M35.3778 17.0045C35.738 21.1722 40.0955 14.0885 40.2842 10.8782C40.4 8.89762 39.4565 7.42204 37.831 4.87491C36.4071 2.64397 32.8516 -0.777094 33.5207 0.158319C38.7059 7.40008 35.2148 15.1601 35.3778 17.0089V17.0045Z" fill="#3C271C" stroke="#3C271C" stroke-width="0.25" stroke-miterlimit="10"/>
<path d="M35.3251 44.5643C36.1844 46.0141 35.6039 48.0514 34.0454 48.8626C32.4731 49.6598 30.5398 48.6062 30.0096 47.0118C31.2025 47.2076 32.2675 47.6551 33.2501 47.1843C34.1917 46.6715 34.763 45.6691 35.3251 44.5643Z" fill="#3C271C"/>
<path d="M34.9801 44.5643C35.542 45.6645 36.1132 46.6715 37.0543 47.1843C38.0412 47.6551 39.1012 47.2076 40.2937 47.0118C39.7637 48.6062 37.8311 49.6598 36.2594 48.8626C34.7014 48.0514 34.1165 46.0141 34.9801 44.5643Z" fill="#3C271C"/>
<path d="M12.2013 78.5751C13.9373 85.1253 18.0813 93.538 17.356 93.6969C16.6306 93.8558 11.3164 85.7035 9.57567 79.1534C7.83974 72.6032 8.15404 65.2939 8.87936 65.135C9.60469 64.9761 10.4606 72.025 12.2013 78.5751Z" fill="#CD985C"/>
<path d="M32.3738 43.6283C32.0178 45.1274 32.9168 46.5504 34.0916 46.8074C35.7248 47.1691 37.1133 45.1084 36.8284 44.2518C36.5659 43.4713 34.7413 43.1905 32.3738 43.6283Z" fill="#3C271C" stroke="#3C271C" stroke-miterlimit="10"/>
</svg>
