<svg width="106" height="122" viewBox="0 0 106 122" fill="none" xmlns="http://www.w3.org/2000/svg">
<g clip-path="url(#clip0_2046_266)">
<path d="M72.095 44.517C51.6155 33.4057 11.2974 38.7486 7.34032 47.5853C2.15478 59.1631 13.3404 92.6444 18.3702 95.7291C24.5349 99.5051 51.3173 98.8874 59.3203 95.4386C62.8056 93.9372 66.8383 82.5517 68.8502 70.9903C69.0371 69.9062 90.9499 73.6782 90.6339 57.0316C90.3757 43.4493 75.923 46.5953 72.095 44.517ZM72.7449 65.2342L73.0609 51.4555C73.0609 51.4555 83.8014 50.7968 84.5626 56.9334C85.7377 66.4247 72.7493 65.2342 72.7493 65.2342H72.7449Z" fill="#A2603A"/>
<path d="M72.095 44.517C51.6155 33.4057 11.2974 38.7486 7.34032 47.5853C2.15478 59.1631 13.3404 92.6444 18.3702 95.7291C24.5349 99.5051 51.3173 98.8874 59.3203 95.4386C62.8056 93.9372 66.8383 82.5517 68.8502 70.9903C69.0371 69.9062 90.9499 73.6782 90.6339 57.0316C90.3757 43.4493 75.923 46.5953 72.095 44.517ZM72.7449 65.2342L73.0609 51.4555C73.0609 51.4555 83.8014 50.7968 84.5626 56.9334C85.7377 66.4247 72.7493 65.2342 72.7493 65.2342H72.7449Z" fill="#A2603A"/>
<path d="M38.1517 56.0858C52.351 56.0858 63.8618 52.778 63.8618 48.6977C63.8618 44.6173 52.351 41.3096 38.1517 41.3096C23.9524 41.3096 12.4415 44.6173 12.4415 48.6977C12.4415 52.778 23.9524 56.0858 38.1517 56.0858Z" fill="black"/>
<path d="M20.9316 50.9566C17.9535 47.4389 16.6702 41.9673 20.6838 34.8987C21.2192 33.9529 18.4977 29.5018 20.1395 23.5407C20.5422 22.0805 29.3659 30.3065 29.8526 30.1987C42.6014 27.3654 46.2433 30.9371 47.9691 29.593C51.58 26.7805 58.0142 22.1676 57.9699 25.0507C58.377 31.6796 56.1866 34.4672 56.3105 34.6871C58.3815 38.321 59.3329 45.4062 55.7175 50.6164C51.0313 57.3698 27.1533 58.3073 20.9316 50.9524V50.9566Z" fill="#CD985C"/>
<path d="M20.2575 58.8274C22.7412 61.0734 30.4327 58.3119 30.3214 55.7427C30.1968 52.9158 21.5617 51.2916 20.075 52.5312C18.0898 54.184 18.2856 57.0396 20.2619 58.8233L20.2575 58.8274Z" fill="#CD985C"/>
<path d="M20.2664 58.8152C21.2501 59.658 22.71 59.6743 23.9653 59.4984C26.0083 59.1711 29.7873 58.0297 30.2502 55.9351C30.4594 53.1491 22.4741 51.6149 20.3287 52.5559C18.2189 54.0655 18.3836 57.1788 20.2664 58.8152ZM20.2441 58.8357C18.2678 57.1665 17.8183 53.9059 20.1551 52.2818C22.5943 51.2426 28.8615 52.8095 30.1612 55.0432C31.412 57.5961 26.1418 59.613 23.9964 59.6907C22.7056 59.7889 21.2323 59.6948 20.2486 58.8357H20.2441Z" fill="#3C271C"/>
<path d="M56.89 58.7414C54.4063 60.9874 46.7147 58.2259 46.826 55.6567C46.9507 52.8298 55.5858 51.2057 57.0725 52.4453C59.0577 54.098 58.8618 56.9536 56.8855 58.7373L56.89 58.7414Z" fill="#CD985C"/>
<path d="M56.8989 58.7537C55.9107 59.6129 54.4419 59.7029 53.1511 59.6088C51.0056 59.531 45.7311 57.5141 46.9863 54.9613C48.2815 52.7317 54.5487 51.1648 56.9924 52.1998C59.3247 53.824 58.8796 57.0887 56.9033 58.7537H56.8989ZM56.8766 58.7333C58.7594 57.0969 58.9286 53.9836 56.8143 52.4739C54.6733 51.5371 46.688 53.0631 46.8928 55.8532C47.3513 57.9478 51.1392 59.0933 53.1778 59.4206C54.433 59.5965 55.8929 59.576 56.8766 58.7374V58.7333Z" fill="#3C271C"/>
<path d="M39.7718 25.1445C34.6374 16.6613 34.3963 17.5434 35.8295 14.3063C38.928 7.30871 35.7313 5.02542 35.0214 4.35436C31.3469 0.880894 37.5305 6.59967 31.3469 14.129C27.735 18.5226 41.0755 27.2928 39.7763 25.1445H39.7718Z" fill="#A2603A"/>
<path d="M38.3778 15.8537C38.738 19.7032 43.0955 13.1603 43.2842 10.1951C43.4 8.36563 42.4565 7.00269 40.831 4.64999C39.4071 2.58936 35.8516 -0.570557 36.5207 0.293451C41.7059 6.98241 38.2148 14.15 38.3778 15.8577V15.8537Z" fill="#A2603A"/>
<path d="M38.3251 41.3096C39.1844 42.6488 38.6039 44.5305 37.0454 45.2798C35.4731 46.0161 33.5398 45.0429 33.0096 43.5703C34.2025 43.7511 35.2675 44.1645 36.2501 43.7296C37.1917 43.2559 37.763 42.3301 38.3251 41.3096Z" fill="#3C271C"/>
<path d="M37.9801 41.3096C38.542 42.3258 39.1132 43.2559 40.0543 43.7296C41.0412 44.1645 42.1012 43.7511 43.2937 43.5703C42.7637 45.0429 40.8311 46.0161 39.2594 45.2798C37.7014 44.5305 37.1165 42.6488 37.9801 41.3096Z" fill="#3C271C"/>
<path d="M15.2013 72.7242C16.9372 78.7743 21.0812 86.5449 20.3559 86.6917C19.6306 86.8384 14.3164 79.3084 12.5756 73.2583C10.8397 67.2082 11.154 60.4568 11.8793 60.3101C12.6046 60.1633 13.4605 66.6741 15.2013 72.7242Z" fill="white"/>
<path d="M35.3738 40.4451C35.0178 41.8298 35.9168 43.1442 37.0916 43.3816C38.7248 43.7156 40.1133 41.8122 39.8284 41.021C39.5659 40.3 37.7413 40.0407 35.3738 40.4451Z" fill="#3C271C"/>
</g>
<defs>
<clipPath id="clip0_2046_266">
<rect width="106" height="121" fill="white" transform="translate(0 0.147217)"/>
</clipPath>
</defs>
</svg>
