<?xml version="1.0" encoding="UTF-8"?>
<svg id="Capa_2" data-name="Capa 2" xmlns="http://www.w3.org/2000/svg" viewBox="0 0 318.68 329.1">
  <defs>
    <style>
      .cls-1 {
        fill: #fff;
      }

      .cls-2 {
        fill: #fafafa;
      }

      .cls-3 {
        fill: #040404;
      }

      .cls-4 {
        fill: #020202;
      }

      .cls-5 {
        fill: #0a0a0a;
      }

      .cls-6 {
        fill: #707070;
      }

      .cls-7 {
        fill: #030303;
      }

      .cls-8 {
        fill: #fbfbfb;
      }

      .cls-9 {
        fill: #050505;
      }

      .cls-10 {
        fill: #0b0b0b;
      }

      .cls-11 {
        fill: #070707;
      }

      .cls-12 {
        fill: #f8f8f8;
      }

      .cls-13 {
        fill: #3c271c;
      }

      .cls-14 {
        fill: #010101;
      }

      .cls-15 {
        fill: #060606;
      }

      .cls-16 {
        fill: #fcfcfc;
      }
    </style>
  </defs>
  <g id="Capa_1-2" data-name="Capa 1">
    <g>
      <path class="cls-13" d="m60.88,158.22c-1.13.32-2.26.68-3.4.96-1.77.44-3.54.97-5.35,1.19-1.99.24-4.03.34-6.02.17-3.28-.28-6.16-1.66-8.65-3.83-.06-.05-.13-.09-.19-.14-.94-1.05-1.88-2.11-2.82-3.16-.14-.23-.28-.46-.42-.68-.08-.11-.17-.22-.25-.33-.05-.06-.09-.12-.14-.17-.74-1.85-1.47-3.7-2.21-5.56-.04-.04-.09-.09-.13-.13.34-.66.15-1.27.01-1.96-.19-.93-.06-1.92-.06-2.88.08-.16.16-.33.24-.49.15-.86.3-1.72.46-2.58.05-.26.1-.52.14-.78l.23-.32c.04-.39.08-.78.12-1.17,0-.05,0-.1,0-.15.06-.18.13-.36.19-.54.05-.06.09-.11.14-.17,0-.16,0-.33-.01-.49.06-.12.11-.23.17-.35.22-.89.45-1.78.67-2.67.07-.16.14-.31.21-.47.39-1.21.78-2.41,1.15-3.63.04-.13.02-.28.02-.42.1-.11.2-.23.29-.34.07-.17.15-.34.22-.5.04-.06.08-.12.12-.18.11-.33.22-.65.33-.98.11-.23.22-.47.33-.7.07-.22.15-.44.22-.65.04-.06.08-.12.12-.17.02-.11.03-.22.05-.32.15-.28.3-.57.45-.85.13-.33.27-.66.4-.99.09-.12.18-.23.27-.35.07-.22.13-.44.2-.66.04-.06.09-.12.13-.18.53-1.11,1.14-2.19,1.58-3.34.28-.74.89-1.26,1.14-1.99.16-.27.32-.53.48-.8l.9-1.54c.14-.23.28-.46.43-.69l1.75-2.83c.14-.23.28-.46.42-.69.19-.39.37-.77.56-1.16.15-.11.3-.23.45-.34.35-.61.7-1.22,1.06-1.83.15-.11.3-.23.45-.34,1.05-1.4,2.1-2.81,3.15-4.21.46-.61.92-1.21,1.39-1.81.11-.09.21-.19.32-.28.96-.96,1.93-1.92,2.89-2.89.1-.1.19-.19.29-.29,3.52-3.02,7.28-5.73,11.53-7.61,2.63-1.16,5.36-2.15,8.13-2.92,2.26-.63,4.62-.92,6.96-1.19,1.81-.21,3.65-.28,5.47-.18,4.11.22,8.12,1.08,11.89,2.74,3.02,1.33,5.79,3.1,8.44,5.06,1.27.94,2.6,1.82,3.76,2.87,1.81,1.64,3.51,3.4,5.22,5.14,1.1,1.11,2.23,2.2,3.19,3.42,1.96,2.5,3.81,5.09,5.72,7.63.67.9,1.44,1.73,2.06,2.66,1.1,1.64,2.13,3.32,3.19,4.99,1.36,2.14,2.78,4.24,4.07,6.43.78,1.32,1.38,2.75,2.03,4.15.83,1.8,1.76,3.57,2.39,5.44.88,2.6,1.59,5.25,2.22,7.92.26,1.11.14,2.31.21,3.46.04.65.09,1.3.13,1.95-.05.11-.09.22-.14.33-.11.83-.13,1.68-.37,2.47-.27.89-.67,1.76-1.12,2.58-1.82,3.28-4.5,5.56-8.06,6.73-1.35.45-2.75.72-4.13,1.1-.09.02-.14.22-.2.33h-.5c.01-.1.03-.2.04-.3-.95-.05-1.93-.29-2.82-.1-.72.15-1.34.24-2.05.07-1.39-.32-2.79-.56-4.18-.87-.57-.13-1.13-.34-1.69-.51-.12-.04-.23-.09-.35-.13-3.67-1.51-7.35-3.03-11.02-4.54-.17-.05-.34-.11-.5-.16-.24-.09-.49-.18-.73-.27-.2-.08-.41-.15-.61-.23-.41-.15-.82-.29-1.23-.44-.2-.08-.41-.15-.61-.23l-6.86-1.84c-.17-.04-.34-.09-.51-.13-.17-.01-.33-.02-.5-.03-.17-.05-.34-.09-.5-.14-1.28-.11-2.56-.21-3.85-.32h-.5c-1.65.15-3.31.22-4.95.46-2.43.35-4.84.8-7.26,1.21-.17.06-.33.12-.5.18-2.01.67-4.01,1.34-6.02,2-.17.05-.33.1-.5.16-.28.12-.56.23-.84.35-.17.05-.33.1-.5.16-.28.11-.56.23-.84.34-.17.05-.33.1-.5.16l-5.02,1.85c-.39.15-.79.29-1.18.44Z"/>
      <path class="cls-13" d="m128.35,43.82c-.65,1.33-1.24,2.7-1.98,3.98-1.31,2.31-2.99,4.34-4.84,6.26-1.89,1.97-4.03,3.58-6.38,4.91-1.92,1.09-3.96,1.99-6.16,2.37-1.78.31-3.52.15-5.28-.35-3.33-.96-6.19-2.68-8.57-5.14-1.01-1.04-1.81-2.3-2.58-3.55-.92-1.49-1.89-2.99-2.51-4.61-.8-2.1-1.31-4.31-1.88-6.48-.6-2.29-.51-4.65-.52-6.99,0-.38-.19-.77-.26-1.15-.03-.2-.07-.53.04-.61.72-.52.25-1.07.28-1.57.15-.53.34-1.05.44-1.59.34-1.76.83-3.53.92-5.31.06-1.16.69-2.02.94-3.04.29-1.13.59-2.27,1.02-3.35.28-.72.84-1.33,1.19-2.03.36-.71,1.07-1.31.82-2.25-.02-.06.12-.18.21-.25,1.43-1.12,2.1-2.8,3.13-4.21.23-.32.63-.5.92-.78,1.33-1.23,2.65-2.47,3.96-3.72.21-.2.4-.43.6-.64.14-.14.28-.33.45-.4,2.04-.89,4.09-1.78,6.15-2.61.78-.32,1.62-.48,2.43-.72.17,0,.33,0,.5,0h.67C112.75,0,113.42,0,114.09,0c.22.06.44.12.66.18,1.05.27,2.11.51,3.14.83.76.24,1.48.58,2.22.88.06.04.12.07.18.11,1.63,1.06,3.16,2.23,4.56,3.6,1.04,1.02,1.73,2.25,2.61,3.35.29.36.57.72.85,1.08.04.11.08.23.12.34l.88,1.99c.11.11.21.23.32.34.17.61.34,1.22.52,1.83.1.12.2.23.3.35.01.11.02.21.04.32,0,.07,0,.13,0,.2.24.82.54,1.63.7,2.46.17.87.14,1.78.31,2.65.37,1.87.31,3.76.32,5.65,0,1.22.12,2.46-.04,3.66-.1.74-.07,1.42.02,2.13-.04.17-.09.34-.13.5,0,.28,0,.55.01.83-.06.03-.13.06-.19.1.05.04.11.08.16.12-.33,1.26-.66,2.52-.99,3.79,0,.06,0,.12,0,.19-.56,1.67-1.12,3.34-1.68,5-.04.06-.08.12-.12.18-.13.33-.25.66-.38.99-.04.06-.08.12-.12.18Z"/>
      <path class="cls-13" d="m18.9,51.99c1.37.4,2.81.67,4.11,1.23,2.9,1.26,5.52,3.01,7.92,5.05,2.15,1.83,4.02,3.94,5.67,6.23,3.26,4.51,5.35,9.54,6.52,14.96.21.95.26,1.94.35,2.91.02.22-.1.45-.14.63.1.31.3.63.31.95.04,1.34.05,2.68,0,4.01-.03.83-.22,1.65-.31,2.48-.04.36.04.73-.02,1.08-.15.96-.26,1.93-.52,2.86-.24.85-.62,1.66-1,2.46-1.52,3.18-3.71,5.74-6.73,7.64-2.79,1.75-5.8,2.08-8.97,1.85-.17-.05-.33-.1-.5-.15-1.9-.62-3.79-1.24-5.69-1.86-.1-.05-.2-.09-.3-.14-.74-.4-1.48-.81-2.21-1.21-.06-.04-.12-.08-.18-.12-1.34-.94-2.69-1.87-4.02-2.82-.4-.28-.76-.61-1.14-.92-.16-.15-.32-.31-.47-.46-.73-.69-1.47-1.38-2.2-2.07,0,0,0-.06,0-.06-.34-.37-.67-.73-1.01-1.1,0-.03,0-.06,0-.09-.61-.85-1.22-1.71-1.83-2.56-.16-.21-.31-.42-.47-.64-.29-.41-.59-.81-.88-1.22,0-.04,0-.07,0-.11-.89-1.8-1.79-3.6-2.68-5.4,0-.05,0-.1,0-.14-.17-.55-.34-1.09-.5-1.64-.04-.06-.08-.12-.12-.18-.51-2.2-1.03-4.4-1.54-6.6C.21,76.29.11,75.69,0,75.1c0-.22,0-.45,0-.67.05-.38.1-.76.15-1.14C.1,72.33.05,71.38,0,70.42c0-.5,0-1,0-1.51.17-.95.31-1.9.52-2.84.31-1.41.57-2.84,1.01-4.21.72-2.21,1.99-4.14,3.66-5.72,2.29-2.17,5-3.68,8.16-4.1,1.66-.22,3.36-.16,5.05-.22l.5.17Z"/>
      <path class="cls-10" d="m0,70.42c.05.96.1,1.91.15,2.87-.05-.02-.1-.03-.15-.03C0,72.32,0,71.37,0,70.42Z"/>
      <path class="cls-6" d="m0,73.26c.05,0,.1,0,.15.03-.05.38-.1.76-.15,1.14,0-.39,0-.78,0-1.17Z"/>
      <path class="cls-8" d="m114.75.18c-.22-.06-.44-.12-.66-.18.22,0,.45,0,.67,0,0,.06,0,.12,0,.18Z"/>
      <path class="cls-13" d="m47.01,1.54c1.28-.29,2.56-.69,3.86-.83,1.05-.11,2.15,0,3.2.17,1.14.18,2.25.55,3.38.83.47.12.95.21,1.42.33.13.03.25.13.37.21.31.21.6.47.93.62,2.24,1.03,4.18,2.48,5.99,4.13.52.47,1.18.79,1.67,1.29.46.46.78,1.06,1.16,1.59.7.98,1.4,1.96,2.11,2.92.58.78,1.24,1.51,1.76,2.33.3.48.34,1.13.59,1.66.52,1.1,1.19,2.13,1.62,3.26.46,1.2.69,2.48,1.06,3.71.35,1.2.8,2.38,1.11,3.59.18.71.11,1.47.23,2.19.57,3.3.7,6.65.45,9.96-.39,5.1-1.8,9.94-4.69,14.24-1.66,2.47-3.81,4.44-6.45,5.89-2.71,1.48-5.59,2.16-8.63,1.89-2.13-.19-4.15-.99-5.98-2.14-.04-.04-.08-.09-.13-.13-1.12-.65-2.3-1.23-3.34-1.98-1.31-.94-2.66-1.89-3.72-3.09-1.78-2.01-3.49-4.12-4.94-6.38-1.23-1.91-2.06-4.09-3.06-6.15-.04-.06-.09-.12-.13-.17-.74-2.68-1.49-5.36-2.19-8.05-.18-.7-.23-1.44-.33-2.16-.11-.11-.21-.22-.32-.33-.05-.07-.15-.14-.14-.19.35-1.78.07-3.57.09-5.36.04-3.83.43-7.59,1.69-11.23.06-.18.04-.39.05-.59.15-.18.3-.35.45-.53,1.26-2.9,3-5.51,5.25-7.72,1.1-1.09,2.5-1.88,3.76-2.8.06-.04.13-.08.19-.12.46-.24.92-.48,1.37-.72.1-.05.2-.09.3-.14Z"/>
      <path class="cls-13" d="m130.98,100.86c-.22-.18-.44-.36-.66-.55-.11-.1-.22-.19-.34-.29-.56-.53-1.11-1.05-1.67-1.58v-.07c-.5-.73-1.01-1.46-1.51-2.19-.05-.06-.09-.12-.14-.18-.12-.22-.24-.44-.37-.66-.05-.06-.09-.12-.14-.17-.02-.05-.03-.1-.04-.15-.04-.06-.09-.12-.13-.19-.35-.95-.71-1.9-1.06-2.84l-.14-.3c-.33-1-.67-2-.98-3.01-.23-.74-.42-1.49-.62-2.23-.01-.05-.07-.11-.06-.15.59-1.16-.21-2.31-.02-3.48.31-1.98.59-3.97.81-5.96.1-.88.03-1.77.04-2.65,0-.11-.03-.28.02-.32,1.14-.8.95-2.19,1.46-3.28.8-1.73,1.33-3.6,2.26-5.26,1.25-2.23,2.64-4.4,4.21-6.41,1.32-1.7,2.83-3.31,4.5-4.65,1.83-1.47,3.87-2.72,5.95-3.8,2.1-1.09,4.41-1.67,6.78-1.99.66-.09,1.31-.29,1.96-.44.13-.03.28-.08.4-.04,1.51.49,3.03.95,4.52,1.49,2.27.83,4.11,2.3,5.68,4.1,1.88,2.17,3.29,4.62,4.09,7.38.43,1.47.79,2.99.97,4.51.23,1.88.49,3.81.29,5.67-.39,3.6-.81,7.23-2.2,10.63-.73,1.78-1.5,3.54-2.29,5.29-1.13,2.48-2.58,4.77-4.44,6.75-1.68,1.79-3.46,3.5-5.33,5.08-1.24,1.05-2.64,1.98-4.11,2.65-2.14.98-4.37,1.81-6.79,1.96-.9.06-1.79.33-2.67.3-2.78-.07-5.35-.84-7.58-2.59-.08-.06-.2-.07-.3-.11-.11-.1-.23-.2-.34-.29Z"/>
      <path class="cls-1" d="m60.88,158.22c.39-.15.79-.29,1.18-.44-.18.72-.6.79-1.18.44Z"/>
      <path class="cls-11" d="m37.13,122.76c-.15.28-.3.57-.45.85-.13-.43.04-.71.45-.85Z"/>
      <path class="cls-10" d="m41.33,114.45c-.16.27-.32.53-.48.8-.11-.43,0-.72.48-.8Z"/>
      <path class="cls-10" d="m42.65,112.22c-.14.23-.28.46-.43.69-.1-.38-.15-.73.43-.69Z"/>
      <path class="cls-10" d="m44.83,108.71c-.14.23-.28.46-.42.69-.1-.38-.15-.72.42-.69Z"/>
      <path class="cls-11" d="m34.04,152.71l.42.68c-.44-.04-.54-.3-.42-.68Z"/>
      <path class="cls-5" d="m36.13,13.04c-.15.18-.3.35-.45.53-.01-.15-.02-.31-.03-.49.18-.02.33-.03.49-.05Z"/>
      <path class="cls-15" d="m31.5,141.19c-.08.16-.16.33-.24.49-.27-.33-.15-.48.24-.49Z"/>
      <path class="cls-5" d="m6.07,92.16c.16.21.31.42.47.64-.16-.21-.31-.42-.47-.64Z"/>
      <path class="cls-11" d="m36.29,124.76c-.11.23-.22.47-.33.7-.48-.52.17-.49.33-.7Z"/>
      <path class="cls-1" d="m67.08,155.92c.17-.05.33-.1.5-.16-.07.15-.14.29-.21.44l-.29-.28Z"/>
      <path class="cls-1" d="m68.42,155.42c.17-.05.33-.1.5-.16-.06.14-.12.28-.18.43-.11-.09-.22-.18-.33-.27Z"/>
      <path class="cls-1" d="m69.76,154.92c.17-.05.33-.1.5-.16-.06.14-.12.28-.18.42-.11-.09-.22-.18-.33-.27Z"/>
      <path class="cls-1" d="m76.28,152.76c.17-.06.33-.12.5-.18l-.24.45c-.09-.09-.17-.18-.26-.27Z"/>
      <path class="cls-15" d="m11.57,98.68c.16.15.32.31.47.46-.16-.15-.32-.31-.47-.46Z"/>
      <path class="cls-1" d="m18.9,51.99l-.5-.17.29-.28.21.45Z"/>
      <path class="cls-11" d="m32.33,137.51l-.23.32c-.04-.08-.08-.15-.11-.23.11-.03.23-.06.34-.1Z"/>
      <path class="cls-1" d="m94.35,151.4c.17.04.34.09.51.13-.17-.04-.34-.09-.51-.13Z"/>
      <path class="cls-4" d="m131.66,32.45c.04-.17.09-.34.13-.5-.04.17-.09.34-.13.5Z"/>
      <path class="cls-10" d="m45.83,107.21c-.15.11-.3.23-.45.34.15-.11.3-.23.45-.34Z"/>
      <path class="cls-3" d="m25.6,106.2c.17.05.33.1.5.15-.17-.05-.33-.1-.5-.15Z"/>
      <path class="cls-5" d="m47.34,105.04c-.15.11-.3.23-.45.34.15-.11.3-.23.45-.34Z"/>
      <path class="cls-1" d="m104.89,154.54c.17.05.34.11.5.16-.17-.05-.34-.11-.5-.16Z"/>
      <path class="cls-11" d="m35.29,127.12l-.29.34.29-.34Z"/>
      <path class="cls-1" d="m88.99,150.91h.5c-.1.09-.19.18-.29.28-.07-.09-.14-.18-.21-.28Z"/>
      <path class="cls-1" d="m93.34,151.23c.17.05.34.09.5.14-.17-.05-.34-.09-.5-.14Z"/>
      <path class="cls-15" d="m33.82,131.51c-.07.16-.14.31-.21.47.07-.16.14-.31.21-.47Z"/>
      <path class="cls-15" d="m129.64,12.71c-.11-.11-.21-.23-.32-.34.11.11.21.23.32.34Z"/>
      <path class="cls-1" d="m101.71,153.38c.2.08.41.15.61.23-.2-.08-.41-.15-.61-.23Z"/>
      <path class="cls-11" d="m52.19,98.73c-.11.09-.21.19-.32.28.11-.09.21-.19.32-.28Z"/>
      <path class="cls-1" d="m103.55,154.05c.2.08.41.15.61.23-.2-.08-.41-.15-.61-.23Z"/>
      <path class="cls-11" d="m32.94,134.65c-.06.12-.11.23-.17.35.06-.12.11-.23.17-.35Z"/>
      <path class="cls-11" d="m37.8,121.42c-.09.12-.18.23-.27.35-.06-.23-.18-.51.27-.35Z"/>
      <path class="cls-7" d="m33.99,30.94c.11.11.21.22.32.33-.11-.11-.21-.22-.32-.33Z"/>
      <path class="cls-9" d="m55.37,95.56c-.1.1-.19.19-.29.29.1-.1.19-.19.29-.29Z"/>
      <path class="cls-15" d="m128.44,10.37c-.04-.11-.08-.23-.12-.34.04.11.08.23.12.34Z"/>
      <path class="cls-7" d="m141.85,147.86c.05-.11.09-.22.14-.33-.05.11-.09.22-.14.33Z"/>
      <path class="cls-7" d="m130.45,14.89c-.1-.12-.2-.23-.3-.35.1.12.2.23.3.35Z"/>
      <path class="cls-10" d="m129.98,100.03c.11.1.22.19.34.29-.11-.1-.22-.19-.34-.29Z"/>
      <path class="cls-10" d="m130.98,100.86c.11.1.23.2.34.29-.11-.1-.23-.2-.34-.29Z"/>
      <path class="cls-3" d="m19.61,104.2c.1.05.2.09.3.14-.1-.05-.2-.09-.3-.14Z"/>
      <path class="cls-16" d="m124.79,91.69l.14.3c-.05-.1-.09-.2-.14-.3Z"/>
      <path class="cls-7" d="m47.01,1.54c-.1.05-.2.09-.3.14.1-.05.2-.09.3-.14Z"/>
      <path class="cls-4" d="m131.64,33.5l-.16-.12c.06-.03.13-.06.19-.1.04.02.09.05.13.07-.05.05-.11.1-.16.15Z"/>
      <path class="cls-14" d="m116.41,159.25c.12.04.23.09.35.13-.12-.04-.23-.09-.35-.13Z"/>
      <path class="cls-11" d="m36.63,123.94c-.04.06-.08.12-.12.17.04-.06.08-.12.12-.17Z"/>
      <path class="cls-15" d="m1.88,83.47c.04.06.08.12.12.18-.04-.06-.08-.12-.12-.18Z"/>
      <path class="cls-7" d="m130.49,15.41c0-.07,0-.13,0-.2.04.02.08.05.13.07-.04.04-.08.09-.12.13Z"/>
      <path class="cls-5" d="m38.13,120.58l-.13.18.13-.18Z"/>
      <path class="cls-11" d="m32.79,135.48c-.05.06-.09.11-.14.17.05-.06.09-.11.14-.17Z"/>
      <path class="cls-11" d="m32.45,136.19c0,.05,0,.1,0,.15-.04-.04-.08-.09-.12-.13.04,0,.09-.01.13-.02Z"/>
      <path class="cls-4" d="m130.65,37.47c0-.06,0-.12,0-.19.04.04.08.09.12.13-.04.02-.09.04-.13.06Z"/>
      <path class="cls-15" d="m17.21,102.88c.06.04.12.08.18.12-.06-.04-.12-.08-.18-.12Z"/>
      <path class="cls-9" d="m31.31,146.53s.09.09.13.13c-.04-.04-.09-.09-.13-.13Z"/>
      <path class="cls-3" d="m36.83,41.48c.04.06.09.12.13.17-.04-.06-.09-.12-.13-.17Z"/>
      <path class="cls-12" d="m128.85,42.65c.04-.06.08-.12.12-.18-.04.06-.08.12-.12.18Z"/>
      <path class="cls-5" d="m128.32,98.38v.07s-.09-.01-.13-.02c.04-.02.09-.03.13-.05Z"/>
      <path class="cls-5" d="m9.38,96.55s0,.06,0,.06c-.04,0-.08-.01-.12-.02.04-.01.08-.03.13-.04Z"/>
      <path class="cls-11" d="m33.65,152.21c.05.06.09.12.14.17-.05-.06-.09-.12-.14-.17Z"/>
      <path class="cls-5" d="m126.66,96.01c.05.06.09.12.14.18-.05-.06-.09-.12-.14-.18Z"/>
      <path class="cls-5" d="m8.37,95.36s0,.06,0,.09c-.04,0-.09-.01-.13-.02.04-.02.09-.04.13-.07Z"/>
      <path class="cls-5" d="m126.16,95.18c.05.06.09.12.14.17-.05-.06-.09-.12-.14-.17Z"/>
      <path class="cls-5" d="m125.99,94.84c.04.06.09.12.13.19-.04-.06-.09-.12-.13-.19Z"/>
      <path class="cls-12" d="m128.35,43.82c.04-.06.08-.12.12-.18-.04.06-.08.12-.12.18Z"/>
      <path class="cls-7" d="m45.33,2.39c-.06.04-.13.08-.19.12.06-.04.13-.08.19-.12Z"/>
      <path class="cls-9" d="m120.29,2c-.06-.04-.12-.07-.18-.11.06.04.12.07.18.11Z"/>
      <path class="cls-5" d="m5.19,90.83s0,.07,0,.11c-.04,0-.08,0-.12,0,.04-.03.08-.07.12-.1Z"/>
      <path class="cls-7" d="m37.27,156.56c.06.05.13.09.19.14-.06-.05-.13-.09-.19-.14Z"/>
      <path class="cls-15" d="m2.5,85.29s0,.1,0,.14c-.04,0-.08-.01-.13-.02.04-.04.08-.08.12-.12Z"/>
      <path class="cls-2" d="m52.03,59.25s.08.09.13.13c-.04-.04-.08-.09-.13-.13Z"/>
      <path class="cls-11" d="m35.63,126.44l-.12.18.12-.18Z"/>
    </g>
    <g>
      <path class="cls-13" d="m222.16,325.26c-1.09.44-2.17.91-3.28,1.31-1.72.62-3.42,1.34-5.2,1.74-1.95.44-3.97.75-5.97.79-3.29.06-6.3-1.01-9-2.91-.07-.04-.14-.08-.21-.12-1.04-.95-2.09-1.9-3.13-2.85-.16-.21-.32-.42-.49-.64-.09-.1-.19-.2-.28-.3-.05-.05-.1-.1-.15-.16-.92-1.77-1.85-3.53-2.77-5.3-.05-.04-.1-.08-.15-.12.27-.69.02-1.28-.19-1.95-.28-.9-.26-1.9-.36-2.86.06-.17.13-.34.19-.51.06-.87.12-1.74.19-2.61.02-.26.04-.53.06-.79l.19-.35c0-.39,0-.78,0-1.18,0-.05,0-.1,0-.15.05-.18.09-.37.14-.55.04-.06.08-.12.12-.18-.02-.16-.04-.33-.07-.49.04-.12.09-.24.13-.36.13-.91.26-1.81.39-2.72.05-.16.11-.33.16-.49.26-1.24.52-2.48.77-3.73.03-.13-.01-.28-.02-.42.09-.12.17-.24.26-.37.06-.17.11-.35.17-.52.03-.06.07-.13.1-.19.08-.34.15-.67.23-1.01.09-.24.17-.49.26-.73.05-.22.1-.45.15-.67.03-.06.07-.12.1-.18,0-.11,0-.22.01-.33.12-.3.24-.6.36-.89.1-.34.2-.68.29-1.02.08-.12.16-.25.23-.37.04-.23.09-.45.13-.68.04-.07.07-.13.11-.2.42-1.16.91-2.3,1.22-3.49.2-.77.76-1.34.93-2.1.13-.28.26-.56.39-.85l.73-1.62c.12-.24.23-.48.35-.73l1.45-2.99c.12-.24.23-.48.35-.73.15-.4.29-.8.44-1.21.14-.13.27-.26.41-.39.29-.64.57-1.29.86-1.93.14-.13.27-.26.41-.39.9-1.51,1.79-3.01,2.69-4.52.39-.65.79-1.3,1.19-1.94.1-.11.19-.21.29-.32.86-1.06,1.71-2.11,2.57-3.17.09-.11.17-.21.26-.32,3.19-3.37,6.64-6.46,10.68-8.77,2.49-1.43,5.11-2.69,7.78-3.75,2.18-.86,4.5-1.4,6.8-1.91,1.78-.4,3.61-.65,5.42-.75,4.11-.21,8.18.23,12.11,1.49,3.14,1,6.08,2.48,8.92,4.16,1.36.8,2.77,1.54,4.04,2.47,1.97,1.45,3.84,3.02,5.73,4.57,1.21.99,2.45,1.96,3.53,3.07,2.21,2.28,4.32,4.66,6.48,6.99.76.82,1.61,1.57,2.33,2.43,1.27,1.51,2.46,3.08,3.69,4.63,1.58,1.99,3.21,3.93,4.72,5.97.91,1.23,1.66,2.59,2.45,3.92,1.01,1.71,2.12,3.37,2.94,5.17,1.14,2.49,2.13,5.06,3.03,7.65.38,1.07.38,2.28.56,3.42.1.64.22,1.29.34,1.93-.03.12-.07.23-.1.35-.03.83.04,1.68-.11,2.49-.17.92-.48,1.82-.84,2.68-1.47,3.45-3.9,5.99-7.32,7.54-1.3.58-2.66,1.01-3.99,1.52-.09.03-.11.23-.17.35l-.5.05c0-.1,0-.2.01-.31-.95.05-1.95-.08-2.82.2-.7.23-1.31.38-2.03.29-1.41-.17-2.83-.27-4.25-.43-.58-.07-1.16-.22-1.74-.33-.12-.03-.24-.06-.36-.09-3.81-1.12-7.62-2.25-11.43-3.37-.17-.03-.35-.07-.52-.1-.25-.06-.5-.13-.75-.19-.21-.05-.42-.11-.63-.17-.42-.1-.85-.21-1.27-.31-.21-.05-.42-.11-.63-.17l-7.01-1.12c-.17-.03-.34-.05-.52-.08-.17,0-.33.01-.5.02-.17-.03-.34-.06-.52-.09-1.29.03-2.57.06-3.86.08l-.5.05c-1.63.32-3.27.57-4.87.97-2.38.6-4.73,1.3-7.1,1.96-.16.08-.32.16-.48.23-1.93.87-3.85,1.75-5.78,2.62-.16.07-.32.14-.48.21-.27.14-.53.29-.8.43-.16.07-.32.14-.48.21-.27.14-.53.29-.8.43-.16.07-.32.14-.48.21l-4.8,2.37c-.38.19-.75.37-1.13.56Z"/>
      <path class="cls-13" d="m277.35,204.47c-.51,1.39-.96,2.81-1.55,4.17-1.07,2.44-2.52,4.63-4.16,6.73-1.68,2.15-3.64,3.98-5.83,5.55-1.8,1.29-3.73,2.39-5.88,3-1.73.49-3.49.52-5.28.2-3.41-.6-6.43-2.03-9.06-4.22-1.11-.93-2.04-2.1-2.94-3.26-1.07-1.38-2.19-2.77-2.98-4.32-1.01-2-1.75-4.15-2.54-6.25-.83-2.22-.99-4.57-1.25-6.9-.04-.38-.27-.74-.37-1.12-.05-.2-.12-.52-.02-.61.66-.59.14-1.09.12-1.59.09-.54.23-1.08.28-1.63.16-1.79.46-3.59.36-5.37-.06-1.16.47-2.08.62-3.13.17-1.16.36-2.32.67-3.44.21-.75.7-1.41.98-2.15.28-.74.93-1.41.58-2.33-.02-.06.1-.19.18-.27,1.3-1.26,1.79-3,2.67-4.51.2-.34.57-.56.84-.87,1.19-1.36,2.37-2.74,3.55-4.11.19-.22.35-.47.53-.7.13-.16.24-.35.41-.45,1.94-1.09,3.88-2.2,5.85-3.24.74-.39,1.56-.65,2.35-.97.17-.02.33-.03.5-.05l.67-.07c.67-.07,1.33-.14,2-.21.23.04.45.08.68.11,1.07.16,2.15.29,3.21.5.78.16,1.54.42,2.3.64.06.03.13.06.19.09,1.73.89,3.37,1.89,4.91,3.11,1.14.9,1.95,2.06,2.94,3.06.32.33.64.65.96.98.05.11.1.22.16.33l1.08,1.89c.12.1.24.21.36.31.23.59.47,1.17.7,1.76.11.11.22.21.33.32.02.1.05.21.07.31,0,.07.01.13.02.2.32.79.7,1.56.95,2.38.26.85.32,1.75.58,2.6.56,1.83.7,3.71.91,5.59.13,1.21.38,2.43.34,3.64-.03.74.08,1.42.24,2.11-.03.17-.05.34-.08.52.03.27.07.55.1.82-.06.04-.12.08-.18.12.06.03.12.07.17.1-.2,1.29-.39,2.58-.59,3.87,0,.06,0,.12.01.19-.38,1.72-.77,3.43-1.15,5.15-.03.06-.07.13-.1.19-.09.34-.18.69-.27,1.03-.03.06-.07.13-.1.19Z"/>
      <path class="cls-13" d="m169.35,223.98c1.41.26,2.86.37,4.22.8,3.02.95,5.8,2.42,8.41,4.2,2.33,1.6,4.41,3.5,6.29,5.61,3.71,4.15,6.31,8.93,8.04,14.2.3.93.46,1.9.65,2.86.04.22-.05.46-.08.65.14.3.36.59.4.92.17,1.33.33,2.66.42,3.99.05.83-.05,1.67-.05,2.5,0,.36.11.72.1,1.08-.04.97-.06,1.95-.22,2.9-.15.87-.45,1.72-.74,2.55-1.18,3.32-3.1,6.1-5.9,8.3-2.59,2.03-5.56,2.67-8.72,2.77-.17-.03-.34-.07-.51-.1-1.95-.42-3.9-.84-5.85-1.26-.1-.03-.21-.07-.31-.1-.78-.32-1.55-.65-2.33-.97-.06-.03-.13-.06-.19-.1-1.43-.79-2.87-1.58-4.29-2.38-.42-.24-.82-.53-1.23-.79-.17-.14-.35-.27-.52-.41-.8-.61-1.6-1.22-2.4-1.83,0,0,0-.06,0-.06-.37-.33-.75-.66-1.12-.99,0-.03,0-.06,0-.09-.7-.78-1.39-1.57-2.09-2.35-.18-.19-.35-.39-.53-.58-.33-.37-.67-.75-1-1.12,0-.04,0-.07-.01-.11-1.07-1.7-2.15-3.39-3.22-5.09,0-.05-.01-.1-.02-.14-.22-.53-.45-1.05-.67-1.58-.05-.06-.09-.11-.14-.17-.74-2.13-1.48-4.27-2.22-6.4-.19-.57-.35-1.15-.53-1.72-.02-.22-.05-.44-.07-.67.01-.38.02-.77.03-1.15-.15-.95-.3-1.89-.45-2.84-.05-.5-.1-1-.16-1.5.07-.96.11-1.92.22-2.88.16-1.43.27-2.88.57-4.29.48-2.27,1.55-4.32,3.05-6.07,2.05-2.39,4.59-4.18,7.69-4.92,1.63-.39,3.33-.51,4.99-.75l.52.11Z"/>
      <path class="cls-10" d="m152.47,244.27c.15.95.3,1.89.45,2.84-.05-.02-.1-.02-.15-.01-.1-.94-.2-1.89-.3-2.83Z"/>
      <path class="cls-6" d="m152.77,247.1c.05,0,.1,0,.15.01-.01.38-.02.77-.03,1.15-.04-.39-.08-.78-.12-1.16Z"/>
      <path class="cls-8" d="m259.29,162.48c-.23-.04-.45-.08-.68-.11.22-.02.44-.05.67-.07,0,.06,0,.12.01.18Z"/>
      <path class="cls-7" d="m256.62,162.57l-.67.07.67-.07Z"/>
      <path class="cls-13" d="m192.06,170.87c1.25-.42,2.47-.95,3.75-1.23,1.03-.22,2.14-.23,3.2-.17,1.15.06,2.3.31,3.44.47.48.07.97.11,1.45.18.13.02.26.1.39.17.33.17.64.4.99.52,2.33.79,4.42,2.03,6.39,3.49.56.42,1.25.67,1.79,1.11.5.41.88.97,1.32,1.46.8.9,1.59,1.8,2.41,2.68.66.72,1.39,1.37,1.99,2.14.35.45.46,1.09.76,1.59.63,1.04,1.4,2,1.95,3.07.58,1.14.95,2.39,1.44,3.58.48,1.16,1.05,2.28,1.48,3.46.25.68.26,1.45.46,2.16.91,3.23,1.39,6.54,1.48,9.86.15,5.11-.76,10.07-3.18,14.65-1.4,2.63-3.32,4.82-5.8,6.52-2.54,1.75-5.34,2.73-8.39,2.78-2.14.03-4.23-.55-6.17-1.5-.05-.04-.09-.08-.14-.12-1.18-.53-2.41-.98-3.53-1.62-1.4-.8-2.85-1.61-4.02-2.69-1.98-1.82-3.9-3.74-5.57-5.83-1.42-1.77-2.47-3.85-3.68-5.79-.05-.05-.1-.11-.15-.16-1.01-2.59-2.04-5.18-3.02-7.78-.26-.68-.37-1.41-.55-2.11-.12-.1-.23-.2-.35-.3-.06-.06-.17-.12-.16-.18.17-1.81-.3-3.56-.47-5.34-.36-3.81-.37-7.6.51-11.35.04-.19,0-.39-.01-.59.13-.19.26-.38.39-.58.96-3.02,2.41-5.79,4.41-8.23.98-1.2,2.29-2.13,3.45-3.18.06-.05.12-.09.18-.14.43-.28.86-.57,1.29-.86.1-.06.19-.11.29-.17Z"/>
      <path class="cls-13" d="m285.9,260.93c-.24-.16-.48-.32-.72-.47-.12-.09-.24-.17-.37-.26-.61-.47-1.22-.93-1.82-1.4v-.07c-.58-.67-1.16-1.35-1.74-2.02-.05-.05-.1-.11-.15-.16-.14-.21-.29-.41-.43-.62-.05-.05-.1-.11-.15-.16-.03-.04-.04-.09-.05-.14-.05-.06-.1-.11-.15-.17-.45-.91-.9-1.81-1.35-2.72l-.17-.29c-.43-.96-.87-1.92-1.29-2.89-.3-.71-.57-1.44-.85-2.15-.02-.05-.08-.11-.07-.14.46-1.22-.45-2.28-.39-3.46.1-2,.17-4.01.19-6.01,0-.88-.15-1.76-.24-2.64-.01-.11-.06-.28-.01-.32,1.05-.92.72-2.28,1.11-3.41.62-1.8.95-3.72,1.7-5.46,1.01-2.34,2.17-4.65,3.52-6.81,1.13-1.83,2.47-3.59,4-5.1,1.67-1.65,3.57-3.1,5.53-4.4,1.97-1.31,4.22-2.12,6.53-2.69.65-.16,1.27-.43,1.91-.64.13-.04.27-.11.39-.08,1.55.33,3.11.63,4.65,1.01,2.34.59,4.32,1.86,6.07,3.49,2.1,1.96,3.76,4.25,4.83,6.92.58,1.42,1.09,2.89,1.43,4.38.42,1.84.88,3.74.88,5.61-.01,3.62-.06,7.28-1.08,10.81-.54,1.85-1.12,3.68-1.73,5.5-.87,2.58-2.07,5.01-3.71,7.18-1.48,1.96-3.07,3.84-4.77,5.61-1.12,1.17-2.42,2.24-3.81,3.06-2.03,1.2-4.16,2.26-6.54,2.66-.88.15-1.74.51-2.63.58-2.78.22-5.41-.28-7.81-1.79-.09-.05-.21-.05-.31-.08-.12-.09-.25-.17-.37-.26Z"/>
      <path class="cls-1" d="m222.16,325.26c.38-.19.75-.37,1.13-.56-.1.74-.52.84-1.13.56Z"/>
      <path class="cls-11" d="m194.84,292.47c-.12.3-.24.6-.36.89-.18-.42-.04-.71.36-.89Z"/>
      <path class="cls-10" d="m198.16,283.76c-.13.28-.26.56-.39.85-.15-.41-.07-.72.39-.85Z"/>
      <path class="cls-10" d="m199.24,281.41c-.12.24-.23.48-.35.73-.14-.37-.23-.71.35-.73Z"/>
      <path class="cls-10" d="m201.04,277.69c-.12.24-.23.48-.35.73-.14-.37-.23-.7.35-.73Z"/>
      <path class="cls-11" d="m194.88,322.58l.49.64c-.45,0-.57-.24-.49-.64Z"/>
      <path class="cls-5" d="m182.43,183.44c-.13.19-.26.38-.39.58-.03-.15-.05-.31-.09-.48.17-.04.33-.07.48-.1Z"/>
      <path class="cls-15" d="m191.16,311.38c-.06.17-.13.34-.19.51-.3-.3-.2-.46.19-.51Z"/>
      <path class="cls-5" d="m160.77,265.26c.18.19.35.39.53.58-.18-.19-.35-.39-.53-.58Z"/>
      <path class="cls-11" d="m194.22,294.54c-.09.24-.17.49-.26.73-.54-.46.12-.51.26-.73Z"/>
      <path class="cls-1" d="m228.08,322.33c.16-.07.32-.14.48-.21-.06.15-.11.3-.17.46l-.32-.25Z"/>
      <path class="cls-1" d="m229.36,321.69c.16-.07.32-.14.48-.21-.04.15-.09.29-.13.44-.12-.08-.24-.16-.35-.23Z"/>
      <path class="cls-1" d="m230.64,321.05c.16-.07.32-.14.48-.21-.04.15-.09.29-.13.44-.12-.08-.23-.16-.35-.23Z"/>
      <path class="cls-1" d="m236.9,318.23c.16-.08.32-.16.48-.23l-.2.47c-.09-.08-.19-.16-.28-.24Z"/>
      <path class="cls-15" d="m166.92,271.17c.17.14.35.27.52.41-.17-.14-.35-.27-.52-.41Z"/>
      <path class="cls-1" d="m169.35,223.98l-.52-.11.26-.31.25.42Z"/>
      <path class="cls-11" d="m191.6,307.63l-.19.35c-.05-.07-.09-.14-.14-.21.11-.04.22-.09.33-.13Z"/>
      <path class="cls-1" d="m254.73,315c.17.03.34.05.52.08-.17-.03-.34-.05-.52-.08Z"/>
      <path class="cls-4" d="m279.46,192.81c.03-.17.05-.34.08-.52-.03.17-.05.34-.08.52Z"/>
      <path class="cls-10" d="m201.88,276.1c-.14.13-.27.26-.41.39.14-.13.27-.26.41-.39Z"/>
      <path class="cls-3" d="m181.65,277.19c.17.03.34.07.51.1-.17-.03-.34-.07-.51-.1Z"/>
      <path class="cls-5" d="m203.15,273.78c-.14.13-.27.26-.41.39.14-.13.27-.26.41-.39Z"/>
      <path class="cls-1" d="m265.54,317.03c.17.03.35.07.52.1-.17-.03-.35-.07-.52-.1Z"/>
      <path class="cls-11" d="m193.46,296.99l-.26.37.26-.37Z"/>
      <path class="cls-1" d="m249.35,315.07l.5-.05c-.09.1-.17.2-.26.31-.08-.08-.16-.17-.24-.25Z"/>
      <path class="cls-1" d="m253.71,314.93c.17.03.34.06.52.09-.17-.03-.34-.06-.52-.09Z"/>
      <path class="cls-15" d="m192.46,301.51c-.05.16-.11.33-.16.49.05-.16.11-.33.16-.49Z"/>
      <path class="cls-15" d="m275.4,173.39c-.12-.1-.24-.21-.36-.31.12.1.24.21.36.31Z"/>
      <path class="cls-1" d="m262.26,316.2c.21.06.42.11.63.17-.21-.06-.42-.11-.63-.17Z"/>
      <path class="cls-11" d="m207.33,267c-.1.11-.19.21-.29.32.1-.11.19-.21.29-.32Z"/>
      <path class="cls-1" d="m264.16,316.67c.21.06.42.11.63.17-.21-.06-.42-.11-.63-.17Z"/>
      <path class="cls-11" d="m191.91,304.72c-.04.12-.09.24-.13.36.04-.12.09-.24.13-.36Z"/>
      <path class="cls-11" d="m195.37,291.07c-.08.12-.16.25-.23.37-.09-.23-.24-.49.23-.37Z"/>
      <path class="cls-7" d="m182.17,201.47c.12.1.23.2.35.3-.12-.1-.23-.2-.35-.3Z"/>
      <path class="cls-9" d="m210.16,263.51c-.09.11-.17.21-.26.32.09-.11.17-.21.26-.32Z"/>
      <path class="cls-15" d="m273.96,171.19c-.05-.11-.1-.22-.16-.33.05.11.1.22.16.33Z"/>
      <path class="cls-7" d="m301.61,306.54c.03-.12.07-.23.1-.35-.03.12-.07.23-.1.35Z"/>
      <path class="cls-7" d="m276.44,175.47c-.11-.11-.22-.21-.33-.32.11.11.22.21.33.32Z"/>
      <path class="cls-10" d="m284.82,260.2c.12.09.24.17.37.26-.12-.09-.24-.17-.37-.26Z"/>
      <path class="cls-10" d="m285.9,260.93c.12.09.25.17.37.26-.12-.09-.25-.17-.37-.26Z"/>
      <path class="cls-3" d="m175.48,275.83c.1.03.21.07.31.1-.1-.03-.21-.07-.31-.1Z"/>
      <path class="cls-16" d="m278.8,252.45l.17.29c-.06-.1-.11-.19-.17-.29Z"/>
      <path class="cls-7" d="m192.06,170.87c-.1.06-.19.11-.29.17.1-.06.19-.11.29-.17Z"/>
      <path class="cls-4" d="m279.55,193.86l-.17-.1c.06-.04.12-.08.18-.12.05.02.09.04.14.06-.05.05-.09.11-.14.16Z"/>
      <path class="cls-14" d="m277.49,320.51c.12.03.24.06.36.09-.12-.03-.24-.06-.36-.09Z"/>
      <path class="cls-11" d="m194.47,293.69c-.03.06-.07.12-.1.18.03-.06.07-.12.1-.18Z"/>
      <path class="cls-15" d="m155.7,257.05c.05.06.09.11.14.17-.05-.06-.09-.11-.14-.17Z"/>
      <path class="cls-7" d="m276.53,175.98c0-.07-.01-.13-.02-.2.04.02.09.04.13.06-.04.05-.07.09-.11.14Z"/>
      <path class="cls-5" d="m195.61,290.19l-.11.2.11-.2Z"/>
      <path class="cls-11" d="m191.85,305.57c-.04.06-.08.12-.12.18.04-.06.08-.12.12-.18Z"/>
      <path class="cls-11" d="m191.59,306.31s0,.1,0,.15c-.04-.04-.09-.08-.13-.11.04-.01.08-.02.13-.04Z"/>
      <path class="cls-4" d="m278.98,197.91c0-.06,0-.12-.01-.19.05.04.09.08.14.12-.04.02-.08.05-.12.07Z"/>
      <path class="cls-15" d="m172.96,274.76c.06.03.13.06.19.1-.06-.03-.13-.06-.19-.1Z"/>
      <path class="cls-9" d="m191.53,316.71s.1.08.15.12c-.05-.04-.1-.08-.15-.12Z"/>
      <path class="cls-3" d="m186.09,211.66c.05.05.1.11.15.16-.05-.05-.1-.11-.15-.16Z"/>
      <path class="cls-12" d="m277.73,203.25c.03-.06.07-.13.1-.19-.03.06-.07.13-.1.19Z"/>
      <path class="cls-5" d="m283,258.73v.07s-.08,0-.12,0c.04-.02.08-.04.12-.06Z"/>
      <path class="cls-5" d="m164.52,269.28s0,.06,0,.06c-.04,0-.08,0-.12,0,.04-.02.08-.04.12-.06Z"/>
      <path class="cls-11" d="m194.45,322.12c.05.05.1.1.15.16-.05-.05-.1-.1-.15-.16Z"/>
      <path class="cls-5" d="m281.11,256.55c.05.05.1.11.15.16-.05-.05-.1-.11-.15-.16Z"/>
      <path class="cls-5" d="m163.39,268.2s.01.06,0,.09c-.04,0-.09,0-.13,0,.04-.03.08-.05.13-.08Z"/>
      <path class="cls-5" d="m280.52,255.77c.05.05.1.11.15.16-.05-.05-.1-.11-.15-.16Z"/>
      <path class="cls-5" d="m280.32,255.45c.05.06.1.11.15.17-.05-.06-.1-.11-.15-.17Z"/>
      <path class="cls-12" d="m277.35,204.47c.03-.06.07-.13.1-.19-.03.06-.07.13-.1.19Z"/>
      <path class="cls-7" d="m190.48,171.9c-.06.05-.12.09-.18.14.06-.05.12-.09.18-.14Z"/>
      <path class="cls-9" d="m264.99,163.71c-.06-.03-.13-.06-.19-.09.06.03.13.06.19.09Z"/>
      <path class="cls-5" d="m159.75,264.03s.01.07.01.11c-.04,0-.08,0-.12,0,.04-.04.07-.07.11-.11Z"/>
      <path class="cls-7" d="m198.5,326.07c.07.04.14.08.21.12-.07-.04-.14-.08-.21-.12Z"/>
      <path class="cls-15" d="m156.51,258.8s.02.09.02.14c-.04,0-.09,0-.13,0,.04-.05.07-.09.11-.14Z"/>
      <path class="cls-2" d="m203.05,227.75s.09.08.14.12c-.05-.04-.09-.08-.14-.12Z"/>
      <path class="cls-11" d="m193.73,296.28l-.1.19.1-.19Z"/>
    </g>
  </g>
</svg>